<?xml version="1.0" encoding="utf-8"?>
<!-- Generator: Adobe Illustrator 25.2.3, SVG Export Plug-In . SVG Version: 6.00 Build 0)  -->
<svg version="1.1" id="레이어_1" xmlns="http://www.w3.org/2000/svg" xmlns:xlink="http://www.w3.org/1999/xlink" x="0px"
	 y="0px" viewBox="0 0 37 37" style="enable-background:new 0 0 37 37;" xml:space="preserve">
<style type="text/css">
	.st0{fill:#FFFFFF;}
</style>
<g>
	<path class="st0" d="M3.03,3.58c-0.33,0-0.6,0.27-0.6,0.6c0,0.33,0.27,0.6,0.6,0.6c0.33,0,0.6-0.27,0.6-0.6
		C3.63,3.85,3.36,3.58,3.03,3.58z"/>
	<path class="st0" d="M5.03,4.78c0.33,0,0.6-0.27,0.6-0.6c0-0.33-0.27-0.6-0.6-0.6c-0.33,0-0.6,0.27-0.6,0.6
		C4.43,4.51,4.7,4.78,5.03,4.78z"/>
	<path class="st0" d="M7.03,4.78c0.33,0,0.6-0.27,0.6-0.6c0-0.33-0.27-0.6-0.6-0.6c-0.33,0-0.6,0.27-0.6,0.6
		C6.43,4.51,6.7,4.78,7.03,4.78z"/>
	<path class="st0" d="M14.02,18.03H4.31c-0.3,0-0.54,0.24-0.54,0.54c0,0.3,0.24,0.54,0.54,0.54h9.71c0.3,0,0.54-0.24,0.54-0.54
		C14.56,18.27,14.32,18.03,14.02,18.03z"/>
	<path class="st0" d="M14.02,20.63H4.31c-0.3,0-0.54,0.24-0.54,0.54c0,0.3,0.24,0.54,0.54,0.54h9.71c0.3,0,0.54-0.24,0.54-0.54
		C14.56,20.87,14.32,20.63,14.02,20.63z"/>
	<path class="st0" d="M35.67,30.87l-2.63-2.63c1.72-3.39,1.17-7.66-1.66-10.49c-0.14-0.14-0.28-0.27-0.43-0.4V2.18
		c0-0.3-0.24-0.54-0.54-0.54H0.92c-0.3,0-0.54,0.24-0.54,0.54v23.84c0,0.3,0.24,0.54,0.54,0.54h15.36c0.41,1.48,1.2,2.85,2.32,3.96
		c1.71,1.71,3.98,2.65,6.39,2.65c0,0,0,0,0,0c1.45,0,2.85-0.34,4.1-0.98l2.63,2.63c0.53,0.53,1.23,0.82,1.98,0.82
		c0.75,0,1.45-0.29,1.98-0.82c0.53-0.53,0.82-1.23,0.82-1.98C36.49,32.1,36.2,31.4,35.67,30.87z M24.99,32.1
		c-2.13,0-4.12-0.83-5.63-2.33c-0.91-0.91-1.57-2.01-1.95-3.2c-0.11-0.35-0.2-0.71-0.26-1.08c-0.07-0.44-0.11-0.89-0.11-1.34
		c0-2.13,0.83-4.12,2.33-5.63c1.5-1.5,3.5-2.33,5.63-2.33c1.79,0,3.49,0.59,4.88,1.67c0.26,0.2,0.51,0.42,0.75,0.66
		c0.12,0.12,0.23,0.24,0.34,0.36c2.12,2.39,2.55,5.77,1.28,8.56c-0.15,0.34-0.33,0.67-0.54,0.99c-0.3,0.48-0.66,0.93-1.08,1.34
		c-0.41,0.41-0.86,0.77-1.34,1.08c-0.32,0.2-0.65,0.38-0.99,0.54C27.26,31.85,26.15,32.1,24.99,32.1z M1.46,25.49V2.72h28.41v13.81
		c-1.44-0.93-3.12-1.43-4.88-1.43c-2.41,0-4.68,0.94-6.39,2.65c-1.71,1.71-2.65,3.98-2.65,6.39c0,0.45,0.03,0.9,0.1,1.34H1.46z
		 M34.91,34.06c-0.32,0.32-0.75,0.5-1.21,0.5c-0.46,0-0.89-0.18-1.21-0.5l-2.43-2.43c0.47-0.32,0.92-0.69,1.33-1.1
		c0.41-0.41,0.78-0.86,1.09-1.33l2.43,2.43c0.32,0.32,0.5,0.75,0.5,1.21S35.23,33.74,34.91,34.06z"/>
	<path class="st0" d="M30.71,27.44c0.19-0.34,0.36-0.69,0.49-1.04c0.6-1.65,0.52-3.49-0.24-5.09c-0.27-0.57-0.63-1.12-1.08-1.61
		c-0.07-0.08-0.13-0.15-0.21-0.23c-1.25-1.25-2.91-1.94-4.67-1.94c-1.77,0-3.43,0.69-4.67,1.94c-1.63,1.63-2.23,3.91-1.79,6.02
		c0.08,0.37,0.18,0.73,0.32,1.08c0.32,0.82,0.81,1.59,1.47,2.25c1.25,1.25,2.91,1.94,4.67,1.94c0.78,0,1.54-0.14,2.26-0.4
		c0.36-0.13,0.71-0.29,1.04-0.49c0.5-0.29,0.96-0.63,1.37-1.05C29.66,28.82,30.48,27.94,30.71,27.44z M27.56,29.04
		c-0.32,0.17-0.66,0.31-1.01,0.41c-0.5,0.15-1.02,0.22-1.55,0.22c-1.48,0-2.86-0.58-3.91-1.62c-0.44-0.44-0.79-0.95-1.05-1.48
		c-0.17-0.35-0.3-0.71-0.39-1.08c-0.45-1.82,0.02-3.83,1.45-5.25c1.04-1.04,2.43-1.62,3.91-1.62c1.48,0,2.86,0.57,3.91,1.62
		c0.4,0.4,0.72,0.84,0.97,1.31c0.68,1.28,0.82,2.78,0.42,4.15c-0.09,0.3-0.2,0.59-0.34,0.87c-0.02,0.05-0.04,0.09-0.06,0.14
		c-0.25,0.48-0.58,0.94-0.99,1.34C28.5,28.45,28.05,28.78,27.56,29.04z"/>
</g>
</svg>
