<?xml version="1.0" encoding="utf-8"?>
<!-- Generator: Adobe Illustrator 25.2.3, SVG Export Plug-In . SVG Version: 6.00 Build 0)  -->
<svg version="1.1" id="레이어_1" xmlns="http://www.w3.org/2000/svg" xmlns:xlink="http://www.w3.org/1999/xlink" x="0px"
	 y="0px" viewBox="0 0 37 37" style="enable-background:new 0 0 37 37;" xml:space="preserve">
<style type="text/css">
	.st0{fill:#FFFFFF;}
</style>
<g>
	<path class="st0" d="M18.43,26.61c2.27,0,4.12-1.85,4.12-4.13c0-2.27-1.85-4.12-4.12-4.12c-2.27,0-4.12,1.85-4.12,4.12
		C14.31,24.76,16.16,26.61,18.43,26.61z M18.43,19.47c1.66,0,3.02,1.35,3.02,3.02c0,1.66-1.35,3.02-3.02,3.02
		c-1.66,0-3.02-1.35-3.02-3.02C15.42,20.82,16.77,19.47,18.43,19.47z"/>
	<path class="st0" d="M35.22,14.25h-9.16V7.88l1.08-0.46v4.43c0,0.31,0.25,0.55,0.55,0.55c0.31,0,0.55-0.25,0.55-0.55V7.04
		c0-0.03,0-0.05-0.01-0.08l1.97-0.84c0.2-0.09,0.34-0.29,0.34-0.51c0-0.22-0.13-0.42-0.34-0.51L18.65,0.19
		c-0.14-0.06-0.29-0.06-0.43,0L6.66,5.1c-0.2,0.09-0.34,0.29-0.34,0.51c0,0.22,0.13,0.42,0.34,0.51l4.15,1.77v6.37H1.65
		c-0.31,0-0.55,0.25-0.55,0.55v15.35c0,0.31,0.25,0.55,0.55,0.55h33.56c0.31,0,0.55-0.25,0.55-0.55V14.81
		C35.77,14.5,35.52,14.25,35.22,14.25z M18.43,1.3l10.14,4.31L18.43,9.92L8.29,5.61L18.43,1.3z M11.92,8.36l6.3,2.68
		c0.14,0.06,0.29,0.06,0.43,0l6.3-2.68v5.9H11.92V8.36z M34.66,29.61H2.21V15.36h32.46V29.61z"/>
	<path class="st0" d="M35.22,32.65H1.65c-0.31,0-0.55,0.25-0.55,0.55c0,0.31,0.25,0.55,0.55,0.55h33.56c0.31,0,0.55-0.25,0.55-0.55
		C35.77,32.9,35.52,32.65,35.22,32.65z"/>
	<path class="st0" d="M35.22,36.03H1.65c-0.31,0-0.55,0.25-0.55,0.55c0,0.31,0.25,0.55,0.55,0.55h33.56c0.31,0,0.55-0.25,0.55-0.55
		C35.77,36.28,35.52,36.03,35.22,36.03z"/>
</g>
</svg>
