<?xml version="1.0" encoding="utf-8"?>
<!-- Generator: Adobe Illustrator 25.2.3, SVG Export Plug-In . SVG Version: 6.00 Build 0)  -->
<svg version="1.1" id="레이어_1" xmlns="http://www.w3.org/2000/svg" xmlns:xlink="http://www.w3.org/1999/xlink" x="0px"
	 y="0px" viewBox="0 0 37 37" style="enable-background:new 0 0 37 37;" xml:space="preserve">
<style type="text/css">
	.st0{fill:#FFFFFF;}
</style>
<path class="st0" d="M33.3,15.21c-0.03,0-0.05,0-0.08,0c-0.34-0.43-0.81-0.75-1.36-0.89c-0.16-2.8-1.24-5.35-2.96-7.35
	c0.2-0.35,0.29-0.74,0.25-1.15c-0.04-0.54-0.29-1.02-0.7-1.37c-2.51-2.13-5.7-3.31-8.99-3.31H17.4c-3.29,0-6.49,1.18-8.99,3.31
	c-0.75,0.63-0.91,1.7-0.45,2.52c-1.71,2-2.8,4.55-2.96,7.35c-0.54,0.14-1.02,0.46-1.36,0.89c-0.03,0-0.05,0-0.08,0
	c-1.88,0-3.41,1.53-3.41,3.41v5.3c0,1.88,1.53,3.41,3.41,3.41c0.03,0,0.05,0,0.08,0c0.47,0.6,1.2,0.98,2.02,0.98
	c1.42,0,2.57-1.15,2.57-2.57V16.8c0-1.27-0.92-2.32-2.13-2.53c0.16-2.48,1.13-4.74,2.63-6.53C9.03,7.91,9.37,8,9.71,8
	c0.48,0,0.94-0.17,1.3-0.48C12.79,6,15.06,5.17,17.4,5.17h2.07c2.34,0,4.6,0.83,6.38,2.35C26.22,7.83,26.68,8,27.16,8
	c0.35,0,0.68-0.09,0.97-0.25c1.51,1.79,2.47,4.05,2.63,6.53c-1.21,0.21-2.13,1.26-2.13,2.53v8.93c0,1.03,0.61,1.91,1.48,2.32
	c-0.97,1.42-3.37,4.18-7.64,4.92c-0.16-1.42-1.36-2.52-2.82-2.52c-1.57,0-2.84,1.27-2.84,2.84c0,1.57,1.27,2.84,2.84,2.84
	c1.28,0,2.37-0.86,2.72-2.03c5.24-0.78,7.98-4.37,8.89-5.81c0.79-0.02,1.5-0.4,1.96-0.98c0.03,0,0.05,0,0.08,0
	c1.88,0,3.41-1.53,3.41-3.41v-5.3C36.71,16.74,35.18,15.21,33.3,15.21z M7.14,25.74c0,0.81-0.66,1.48-1.48,1.48
	c-0.25,0-0.49-0.07-0.7-0.18c-0.35-0.19-0.61-0.51-0.72-0.89c-0.04-0.13-0.06-0.26-0.06-0.4V16.8c0-0.14,0.03-0.27,0.06-0.4
	c0.11-0.39,0.37-0.71,0.72-0.89c0.01,0,0.01,0.01,0.02,0.01V15.5c0.21-0.11,0.43-0.17,0.68-0.17c0.14,0,0.28,0.03,0.41,0.07
	c0.61,0.18,1.06,0.74,1.06,1.41V25.74z M1.25,23.92v-5.3c0-1.13,0.81-2.07,1.88-2.27c-0.03,0.15-0.04,0.3-0.04,0.46v8.93
	c0,0.16,0.02,0.31,0.04,0.46C2.06,25.99,1.25,25.05,1.25,23.92z M26.56,6.68c-1.98-1.68-4.5-2.61-7.09-2.61H17.4
	c-2.6,0-5.12,0.93-7.09,2.61C10.1,6.86,9.81,6.92,9.55,6.87c-0.21-0.04-0.4-0.13-0.54-0.29C8.89,6.43,8.82,6.26,8.8,6.08
	c-0.03-0.29,0.08-0.59,0.32-0.8c2.31-1.97,5.25-3.05,8.28-3.05h2.07c3.03,0,5.97,1.08,8.28,3.05c0.19,0.16,0.3,0.38,0.32,0.63
	c0,0.06,0,0.11,0,0.17c-0.02,0.18-0.09,0.36-0.21,0.5c-0.14,0.16-0.33,0.26-0.54,0.29C27.06,6.92,26.77,6.86,26.56,6.68z M21.4,33.3
	c0,0.35-0.1,0.67-0.28,0.94c-0.31,0.49-0.85,0.81-1.47,0.81c-0.96,0-1.75-0.78-1.75-1.75s0.78-1.75,1.75-1.75
	c0.9,0,1.65,0.69,1.74,1.57C21.4,33.18,21.4,33.24,21.4,33.3z M31.91,27.03c-0.1,0.06-0.22,0.1-0.33,0.13
	c-0.12,0.03-0.24,0.05-0.37,0.05c-0.18,0-0.35-0.04-0.51-0.1c-0.56-0.21-0.97-0.75-0.97-1.38V16.8c0-0.67,0.45-1.23,1.06-1.41
	c0.13-0.04,0.27-0.07,0.41-0.07c0.25,0,0.48,0.07,0.68,0.17v0.02c0.01,0,0.01-0.01,0.02-0.01c0.35,0.19,0.61,0.51,0.72,0.89
	c0.04,0.13,0.06,0.26,0.06,0.4v8.93c0,0.14-0.03,0.27-0.06,0.4C32.51,26.52,32.25,26.84,31.91,27.03z M35.62,23.92
	c0,1.13-0.81,2.07-1.88,2.27c0.03-0.15,0.04-0.3,0.04-0.46V16.8c0-0.16-0.02-0.31-0.04-0.46c1.07,0.2,1.88,1.14,1.88,2.27V23.92z"/>
</svg>
