<?xml version="1.0" encoding="utf-8"?>
<!-- Generator: Adobe Illustrator 25.2.3, SVG Export Plug-In . SVG Version: 6.00 Build 0)  -->
<svg version="1.1" id="Icon" xmlns="http://www.w3.org/2000/svg" xmlns:xlink="http://www.w3.org/1999/xlink" x="0px" y="0px"
	 viewBox="0 0 46 46" style="enable-background:new 0 0 46 46;" xml:space="preserve">
<style type="text/css">
	.st0{fill:#30B9A5;}
	.st1{fill:#FFFFFF;}
</style>
<circle class="st0" cx="23" cy="23" r="23"/>
<path class="st1" d="M37.47,30.23l-6.5-6.5c-0.35-0.35-0.83-0.55-1.33-0.55c-0.5,0-0.98,0.2-1.33,0.55l-2.33,2.33
	c-0.35,0.35-0.55,0.83-0.55,1.33c0,0.21,0.03,0.41,0.1,0.6l-0.14,0.15c-2.46-2.11-5.42-5.06-7.52-7.53l0.14-0.14
	c0.2,0.07,0.4,0.1,0.6,0.1c0.48,0,0.96-0.18,1.33-0.55l2.33-2.33c0.35-0.35,0.55-0.83,0.55-1.33c0-0.5-0.2-0.98-0.55-1.33l-6.5-6.5
	c-0.37-0.37-0.85-0.55-1.33-0.55c-0.48,0-0.96,0.18-1.33,0.55l-2.33,2.33c-0.35,0.35-0.55,0.83-0.55,1.33
	c0,0.29,0.07,0.57,0.19,0.83c-0.75,1.06-1.52,2.17-1.73,2.46c-0.81,0.92-0.92,2.25-0.26,3.3c4.37,6.9,11.94,14.47,18.84,18.84
	c0.44,0.28,0.95,0.43,1.48,0.43c0.67,0,1.33-0.25,1.83-0.69c0.28-0.21,1.38-0.99,2.44-1.75c0.26,0.12,0.53,0.18,0.81,0.18
	c0.48,0,0.96-0.18,1.33-0.55l2.33-2.33c0.35-0.35,0.55-0.83,0.55-1.33C38.02,31.06,37.82,30.58,37.47,30.23z M33.9,33.8l-3.21-3.21
	c-0.24-0.24-0.64-0.24-0.89,0c-0.25,0.25-0.25,0.64,0,0.89l2.38,2.38c-1.1,0.79-2.81,2.01-2.84,2.04c-0.17,0.17-0.39,0.26-0.62,0.26
	c-0.16,0-0.32-0.04-0.47-0.14C21.62,31.8,14.22,24.4,10,17.76c-0.22-0.35-0.16-0.81,0.12-1.09c0.03-0.03,1.23-1.75,2.02-2.86
	l0.74,0.74c0.12,0.12,0.28,0.18,0.44,0.18c0.16,0,0.32-0.06,0.44-0.18c0.25-0.25,0.25-0.64,0-0.89l-1.57-1.57l2.23-2.23l6.5,6.5
	l-2.23,2.23l-3.4-3.4c-0.25-0.25-0.64-0.25-0.89,0c-0.25,0.25-0.25,0.64,0,0.89l2.66,2.66l-1.75,1.75
	c2.48,3.18,7.01,7.72,10.19,10.2l1.75-1.75l1.03,1.03c0.12,0.12,0.28,0.18,0.44,0.18s0.32-0.06,0.44-0.18
	c0.25-0.25,0.25-0.64,0-0.89l-1.77-1.77l2.23-2.23l6.5,6.5L33.9,33.8z"/>
</svg>
